<svg width="51" height="64" viewBox="0 0 51 64" fill="none" xmlns="http://www.w3.org/2000/svg">
<g clip-path="url(#clip0_2_97)">
<path d="M13.9 54.8C11.6 54.8 9.3 54.8 7 54.8C3.6 54.8 0.9 52.7 0.2 49.4C-0.1 48.1 0 46.8 0.5 45.6C0.9 44.5 1.3 43.4 1.8 42.3C2.3 41.2 2.4 40.1 2.4 38.9C2.4 34.7 2.2 30.6 2.5 26.4C3.1 16.8 7.9 10 16.7 6.2C18.6 5.4 20.7 5 22.8 4.4C22.8 3.9 22.8 3.1 22.8 2.3C22.9 0.499997 24.6 -0.600003 26.1 0.199997C27 0.699997 27.4 1.4 27.4 2.4C27.4 3.1 27.4 3.9 27.4 4.5C29.2 5 31.1 5.3 32.8 6C41 9.4 46 15.4 47.6 24.2C47.8 25.5 47.9 26.7 47.9 28C47.9 31.6 47.9 35.3 47.9 38.9C47.9 40.1 48.1 41.2 48.6 42.3C49 43.4 49.5 44.4 49.9 45.5C51.6 50 48.3 54.8 43.5 54.8C41.4 54.8 39.2 54.8 37.1 54.8C36.6 54.8 36.4 54.9 36.3 55.4C35 60.4 30.5 63.9 25.2 63.9C20 63.9 15.5 60.4 14.1 55.4C14 55.2 14 55 13.9 54.8ZM25.1 50.3C31.1 50.3 37.1 50.3 43.1 50.3C45.1 50.3 46.1 48.8 45.4 46.9C45 45.9 44.7 45 44.3 44C43.6 42.3 43.3 40.6 43.3 38.7C43.3 35 43.3 31.4 43.3 27.7C43.3 25.8 43 24 42.5 22.2C39.8 13.5 31 7.9 22 9.4C13.6 10.8 7.1 18.5 7 27C7 31.1 7 35.2 7 39.3C7 40 7 40.8 6.8 41.5C6.2 43.3 5.6 45.1 4.9 46.8C4.1 48.8 5.1 50.3 7.3 50.3C13.2 50.3 19.2 50.3 25.1 50.3ZM18.8 54.8C19.7 57.6 22.7 59.6 25.5 59.3C28.3 59.1 31.1 56.9 31.5 54.8C27.2 54.8 23 54.8 18.8 54.8Z" fill="black"/>
</g>
<defs>
<clipPath id="clip0_2_97">
<rect width="50.3" height="64" fill="white"/>
</clipPath>
</defs>
</svg>
