<svg width="49" height="54" viewBox="0 0 49 54" fill="none" xmlns="http://www.w3.org/2000/svg">
<path d="M4.1 45.6155C4.3 45.6155 4.5 45.5155 4.7 45.5155C4.9 37.4155 5 29.3155 5.2 21.3155C4 20.7155 3.9 20.4155 4.4 19.2155C3.9 19.2155 3.5 19.2155 3.1 19.2155C2.7 19.2155 2.3 19.2155 1.9 19.2155C1.9 17.5155 1.9 15.9155 1.9 14.3155C2.2 14.0155 2.4 13.7155 2.6 13.5155C2.5 13.4155 2.5 13.4155 2.4 13.3155C1.7 13.3155 0.9 13.3155 0 13.3155C0.3 13.1155 0.4 13.0155 0.6 12.9155C8.3 8.61547 16.1 4.31547 23.8 0.11547C24.1 0.0154701 24.5 -0.0845299 24.7 0.11547C32.6 4.41547 40.5 8.71547 48.5 13.0155C48.6 13.0155 48.6 13.1155 48.9 13.2155C48 13.2155 47.2 13.2155 46.5 13.2155C46.2 13.8155 46.5 14.0155 47 14.0155C47 15.7155 47 17.3155 47 19.1155C46.1 19.1155 45.3 19.1155 44.4 19.1155C45 20.3155 44.9 20.7155 43.7 21.1155C43.9 29.2155 44 37.3155 44.2 45.4155C44.4 45.5155 44.6 45.5155 44.8 45.6155C44.8 45.9155 44.8 46.2155 44.8 46.5155C44.8 46.7155 45 46.9155 45.1 47.0155C45.2 47.2155 45.3 47.3155 45.3 47.5155C45.3 47.9155 45.3 48.3155 45.3 48.7155C45.9 48.7155 46.4 48.7155 46.9 48.7155C46.9 49.4155 46.9 50.0155 46.9 50.7155C47.4 50.7155 47.7 50.7155 48.1 50.8155C48.1 51.7155 48.1 52.6155 48.1 53.5155C32.2 53.5155 16.3 53.5155 0.4 53.5155C0.4 52.6155 0.4 51.7155 0.4 50.8155C0.9 50.8155 1.3 50.8155 1.8 50.7155C1.8 50.0155 1.8 49.4155 1.8 48.7155C2.4 48.7155 2.9 48.7155 3.5 48.7155C3.5 48.3155 3.5 48.0155 3.5 47.7155C3.5 47.4155 3.3 47.0155 3.9 46.8155C4 46.8155 4 46.4155 4 46.2155C4.1 46.1155 4.1 45.9155 4.1 45.6155ZM16.3 45.3155C16.4 45.3155 16.5 45.3155 16.5 45.3155C16.7 37.2155 16.8 29.1155 17 21.0155C16.9 21.0155 16.9 21.1155 16.8 21.1155C16.5 20.8155 16.1 20.6155 16 20.3155C15.9 19.9155 16.1 19.5155 16.1 19.1155C13.8 19.1155 11.4 19.1155 9 19.1155C9.6 20.2155 9.5 20.6155 8.2 21.1155C8.4 29.2155 8.5 37.3155 8.7 45.4155C8.9 45.5155 9.1 45.5155 9.3 45.6155C9.3 46.1155 9.2 46.8155 9.4 46.9155C9.9 47.2155 9.7 47.6155 9.7 47.9155C9.7 48.1155 9.7 48.4155 9.7 48.7155C11.6 48.7155 13.4 48.7155 15.3 48.7155C15.3 48.4155 15.3 48.1155 15.3 47.9155C15.3 47.6155 15.3 47.2155 15.4 47.2155C15.9 47.0155 15.8 46.6155 15.8 46.2155C16 45.8155 16.2 45.5155 16.3 45.3155ZM28.3 45.4155C28.5 37.2155 28.6 29.1155 28.8 21.0155C27.6 20.7155 27.4 20.2155 28 19.1155C25.6 19.1155 23.2 19.1155 20.8 19.1155C21.5 20.2155 21.3 20.6155 20.1 21.1155C20.3 29.2155 20.4 37.3155 20.6 45.4155C20.8 45.5155 21 45.5155 21.2 45.6155C21.3 46.1155 21.3 46.6155 21.4 47.0155C21.4 47.2155 21.7 47.4155 21.7 47.6155C21.8 47.9155 21.7 48.3155 21.7 48.7155C23.5 48.7155 25.3 48.7155 27.1 48.7155C27.1 48.3155 27.1 48.0155 27.1 47.6155C27.1 47.4155 27.1 47.1155 27.2 47.1155C27.7 47.0155 27.5 46.6155 27.6 46.3155C27.6 46.1155 27.6 45.8155 27.6 45.6155C27.8 45.4155 28 45.4155 28.3 45.4155ZM33.4 48.7155C35.3 48.7155 37 48.7155 38.8 48.7155C38.8 48.4155 38.8 48.1155 38.8 47.8155C38.8 47.6155 38.8 47.2155 38.9 47.1155C39.5 46.9155 39.2 46.5155 39.3 46.1155C39.4 45.8155 39.5 45.6155 39.7 45.3155C39.8 45.3155 39.9 45.3155 39.9 45.4155C40.1 37.3155 40.2 29.2155 40.4 21.1155C40.3 21.1155 40.3 21.2155 40.2 21.2155C39.9 20.9155 39.5 20.7155 39.4 20.3155C39.3 20.0155 39.5 19.5155 39.6 19.1155C37.3 19.1155 34.9 19.1155 32.5 19.1155C33.1 20.2155 33 20.6155 31.8 21.1155C32 29.2155 32.1 37.3155 32.3 45.4155C32.5 45.4155 32.7 45.5155 33 45.5155C33 45.8155 33 46.1155 33 46.3155C33 46.5155 33.1 46.7155 33.2 46.9155C33.3 47.1155 33.5 47.2155 33.5 47.4155C33.5 47.9155 33.4 48.3155 33.4 48.7155Z" fill="black"/>
</svg>
