<svg width="42" height="9" viewBox="0 0 42 9" fill="none" xmlns="http://www.w3.org/2000/svg">
<g clip-path="url(#clip0_2_94)">
<path d="M16.9 4.00001C16.9 1.70001 18.7 -0.099994 21 5.97583e-06C23.3 5.97583e-06 25 1.80001 25 4.10001C25 6.40001 23.2 8.20001 20.9 8.10001C18.6 8.10001 16.9 6.30001 16.9 4.00001Z" fill="black"/>
<path d="M37.8 8.09999C35.5 8.09999 33.7 6.29999 33.7 3.99999C33.7 1.79999 35.5 -0.100007 37.8 -7.18446e-06C40 -7.18446e-06 41.8 1.79999 41.9 3.99999C41.9 6.29999 40 8.09999 37.8 8.09999Z" fill="black"/>
<path d="M4.1 8.1C1.8 8.1 0 6.3 0 4C0 1.8 1.8 0 4.1 0C6.4 0 8.2 1.8 8.2 4.1C8.2 6.3 6.3 8.1 4.1 8.1Z" fill="black"/>
</g>
<defs>
<clipPath id="clip0_2_94">
<rect width="41.9" height="8.1" fill="white"/>
</clipPath>
</defs>
</svg>
