<svg width="67" height="50" viewBox="0 0 67 50" fill="none" xmlns="http://www.w3.org/2000/svg">
<g clip-path="url(#clip0_2_12)">
<path d="M18.9 40.2C16.8 40.2 14.8 40.2 12.8 40.2C10.9 40.2 9 40.3 7.2 40.1C3.2 39.7 0.100003 36.1 0.100003 32.1C0.100003 24.1 0.100003 16.1 0.100003 8.1C3.03169e-06 3.7 3.7 0 8.2 0C22.1 0 36 0 49.9 0C52.9 0 55.8 0 58.8 0C63.3 0 67 3.7 67 8.2C67 16.1 67 23.9 67 31.8C67 36.7 63.4 40.2 58.5 40.2C50.6 40.2 42.7 40.2 34.9 40.2C34.4 40.2 33.9 40.4 33.5 40.6C29 43.2 24.6 45.9 20.1 48.6C19.6 48.9 18.9 49.1 18.3 49.1C16.8 48.9 16.1 47.4 16.6 46C17.3 44.3 18 42.6 18.7 40.9C18.7 40.7 18.8 40.5 18.9 40.2ZM23.3 41.4C23.7 41.2 23.9 41.1 24.1 41C26.7 39.4 29.4 37.8 32 36.3C32.5 36 33.2 35.8 33.7 35.8C42 35.8 50.2 35.8 58.5 35.8C60.9 35.8 62.4 34.3 62.4 31.9C62.4 24.1 62.4 16.3 62.4 8.5C62.4 6.1 60.9 4.6 58.6 4.6C41.8 4.6 25.1 4.6 8.3 4.6C6 4.5 4.5 6 4.5 8.3C4.5 16.1 4.5 24 4.5 31.8C4.5 32.2 4.5 32.5 4.6 32.9C5 34.7 6.4 35.7 8.4 35.7C13 35.7 17.6 35.7 22.2 35.7C24 35.7 25 37.2 24.4 38.9C24 39.7 23.7 40.5 23.3 41.4Z" fill="black"/>
</g>
<defs>
<clipPath id="clip0_2_12">
<rect width="66.9" height="49.1" fill="white"/>
</clipPath>
</defs>
</svg>
