<svg width="32" height="42" viewBox="0 0 32 42" fill="none" xmlns="http://www.w3.org/2000/svg">
<g clip-path="url(#clip0_2_110)">
<path d="M31.2 15.2C31.1 18.4 30.4 21.4 28.8 24.3C26.4 28.6 23.5 32.6 20.4 36.4C19.1 38 17.8 39.5 16.5 41C16 41.6 15.2 41.6 14.7 41C10.6 36.4 6.89999 31.7 3.69999 26.5C2.39999 24.3 1.19999 22.1 0.599994 19.6C-0.400006 15.6 -0.200006 11.6 1.79999 7.90001C3.79999 4.10001 6.99999 1.80001 11.1 0.700013C16.2 -0.599987 21 0.100013 25.3 3.10001C28.6 5.40001 30.5 8.70001 31 12.7C31.1 13.5 31.1 14.3 31.2 15.2ZM15.6 38.5C15.7 38.4 15.8 38.3 15.9 38.2C17 36.9 18 35.7 19.1 34.4C22 30.8 24.6 27.2 26.8 23.2C28.5 20 29.2 16.6 28.7 13C28.2 9.60001 26.6 6.70001 23.6 4.80001C20.1 2.40001 16.1 1.80001 12 2.80001C9.19999 3.40001 6.79999 4.80001 4.99999 7.00001C2.39999 10.2 1.79999 13.8 2.39999 17.8C2.79999 20.1 3.69999 22.3 4.89999 24.3C7.09999 28 9.59999 31.5 12.3 34.8C13.5 36 14.5 37.3 15.6 38.5Z" fill="black"/>
<path d="M15.6 24C11.2 24 7.59998 20.4 7.59998 16C7.59998 11.6 11.2 8 15.7 8C20.1 8 23.7 11.6 23.7 16.1C23.6 20.4 20 24 15.6 24ZM15.6 10.2C12.4 10.2 9.89998 12.8 9.79998 15.9C9.79998 19.1 12.3 21.7 15.5 21.7C18.7 21.7 21.3 19.2 21.3 16C21.3 12.8 18.8 10.2 15.6 10.2Z" fill="black"/>
</g>
<defs>
<clipPath id="clip0_2_110">
<rect width="31.2" height="41.4" fill="white"/>
</clipPath>
</defs>
</svg>
