<svg width="49" height="49" viewBox="0 0 49 49" fill="none" xmlns="http://www.w3.org/2000/svg">
<g clip-path="url(#clip0_2_92)">
<path d="M48.9 45.4C47.8 46.5 46.6 47.7 45.4 48.9C43.4 46.9 41.3 44.8 39.3 42.8C37.3 40.8 35.2 38.7 33.2 36.7C27.8 40.7 21.9 42.1 15.4 40.4C10.5 39.1 6.60003 36.3 3.60003 32.1C-2.19997 23.8 -0.899971 12.6 6.60003 5.5C14.1 -1.5 25.4 -1.9 33.5 4.6C37.8 8.1 40.3 12.7 40.9 18.2C41.5 23.7 40 28.7 36.7 33.1C38.7 35.2 40.8 37.2 42.8 39.3C44.8 41.3 46.9 43.4 48.9 45.4ZM20.5 5.1C11.9 5.1 5.00003 12 5.00003 20.6C5.00003 29.1 11.9 36.1 20.4 36.1C29 36.1 36 29.1 36 20.6C36 12.1 29.1 5.1 20.5 5.1Z" fill="black"/>
</g>
<defs>
<clipPath id="clip0_2_92">
<rect width="48.9" height="48.9" fill="white"/>
</clipPath>
</defs>
</svg>
