<svg width="61" height="61" viewBox="0 0 61 61" fill="none" xmlns="http://www.w3.org/2000/svg">
<g clip-path="url(#clip0_2_98)">
<path d="M32.7 0C34.2 0.4 35 1.4 35.7 2.7C36.4 4 37.1 5.2 37.8 6.4C37.9 6.6 38.1 6.7 38.3 6.9C38.3 6.9 38.3 6.9 38.4 6.9C39.3 7.3 40.1 7.9 41 7.9C41.9 8 42.8 7.5 43.7 7.2C44.6 7 45.6 6.7 46.5 6.5C47.8 6.2 49 6.5 50 7.4C50.9 8.3 51.9 9.2 52.8 10.2C53.7 11.2 54 12.3 53.7 13.6C53.3 15.3 52.8 17 52.4 18.7C52.3 19 52.3 19.3 52.4 19.6C52.7 20.4 53 21.2 53.4 21.9C53.5 22.1 53.7 22.3 53.9 22.4C55.4 23.3 56.9 24.1 58.4 25C59.7 25.7 60.3 26.9 60.3 28.3C60.3 29.5 60.3 30.7 60.3 31.9C60.3 33.3 59.7 34.4 58.5 35.1C57 36 55.4 36.9 53.9 37.8C53.7 37.9 53.5 38.1 53.4 38.4C53.1 39.2 52.7 39.9 52.5 40.7C52.4 40.9 52.4 41.3 52.5 41.5C52.9 43.2 53.4 44.9 53.9 46.6C54.2 47.9 53.9 49.1 53 50.1C52 51 51 51.9 50.1 52.8C49.1 53.8 47.9 54.1 46.6 53.7C44.9 53.3 43.2 52.8 41.5 52.3C41.3 52.2 41 52.3 40.7 52.3C40.7 52.3 40.7 52.3 40.6 52.3C39.7 52.7 38.7 52.8 38.1 53.4C37.4 54 37.1 55 36.7 55.8C36.2 56.7 35.7 57.5 35.2 58.3C34.5 59.5 33.4 60.1 32 60.1C30.7 60.1 29.5 60.1 28.2 60.1C26.9 60.1 25.8 59.5 25.1 58.4C24.2 56.9 23.3 55.3 22.4 53.8C22.3 53.6 22 53.3 21.8 53.2C21.1 52.9 20.3 52.5 19.6 52.3C19.3 52.2 19 52.2 18.7 52.3C17 52.7 15.4 53.2 13.7 53.6C12.4 53.9 11.2 53.6 10.2 52.6C9.3 51.7 8.4 50.8 7.5 49.9C6.5 48.9 6.2 47.7 6.5 46.3C6.9 44.6 7.4 42.9 7.9 41.2C8 41 7.9 40.7 7.9 40.4C7.9 40.4 7.9 40.4 7.9 40.3C7.5 39.4 7.4 38.4 6.8 37.8C6.2 37.1 5.2 36.8 4.4 36.4C3.5 35.9 2.7 35.4 1.9 34.9C0.6 34.5 0 33.4 0 32C0 30.7 0 29.5 0 28.2C0 26.8 0.6 25.8 1.7 25.1C3.2 24.2 4.8 23.3 6.3 22.4C6.5 22.3 6.8 22 6.9 21.8C7.2 21.1 7.5 20.4 7.8 19.7C8 19.4 8 19 7.8 18.6C7.3 17 6.9 15.3 6.5 13.7C6.2 12.4 6.5 11.2 7.4 10.2C8.3 9.3 9.2 8.4 10.1 7.5C11.1 6.6 12.2 6.2 13.6 6.6C15.3 7 17 7.4 18.7 7.9C19 8 19.3 8 19.6 7.9C20.5 7.6 21.5 7.4 22.1 6.8C22.7 6.2 23 5.3 23.5 4.5C23.9 3.8 24.4 3 24.8 2.3C25.4 1 26.3 0.3 27.6 0C29.3 0 31 0 32.7 0ZM9.8 47.6C9.9 47.7 9.9 47.8 10 48C10.8 48.8 11.6 49.6 12.4 50.4C12.5 50.5 12.8 50.6 13 50.6C15 50 17 49.5 19 48.9C19.2 48.8 19.4 48.8 19.6 48.9C21.2 49.5 22.8 50.2 24.4 50.9C24.6 51 24.8 51.2 25 51.5C26 53.3 27 55 28 56.8C28.1 57 28.4 57.1 28.6 57.1C29.7 57.1 30.9 57.1 32 57.1C32.2 57.1 32.5 56.9 32.6 56.8C33.6 55 34.6 53.2 35.6 51.5C35.7 51.3 35.9 51.1 36.1 51C37.7 50.3 39.3 49.6 41 49C41.2 48.9 41.4 48.9 41.6 49C43.6 49.5 45.5 50.1 47.5 50.7C47.7 50.8 48 50.6 48.2 50.5C49 49.8 49.8 49 50.5 48.2C50.6 48 50.8 47.7 50.7 47.5C50.2 45.6 49.6 43.6 49.1 41.7C49 41.4 49 41.1 49.1 40.9C49.7 39.3 50.4 37.7 51 36.2C51.1 36 51.3 35.8 51.5 35.7C53.3 34.7 55 33.7 56.8 32.7C57 32.6 57.1 32.3 57.1 32.1C57.1 31 57.1 29.8 57.1 28.7C57.1 28.5 56.9 28.3 56.8 28.2C55 27.2 53.2 26.2 51.5 25.2C51.3 25.1 51.1 24.9 51 24.7C50.3 23.1 49.6 21.5 49 19.8C48.9 19.6 48.9 19.4 49 19.2C49.5 17.3 50.1 15.3 50.6 13.4C50.7 13.2 50.6 12.8 50.4 12.7C49.7 11.9 48.9 11.1 48.1 10.4C47.9 10.3 47.6 10.1 47.4 10.2C45.5 10.7 43.5 11.3 41.6 11.8C41.3 11.9 41 11.9 40.8 11.8C39.2 11.2 37.6 10.5 36.1 9.9C35.9 9.8 35.7 9.6 35.6 9.4C34.6 7.6 33.6 5.9 32.6 4.1C32.5 3.9 32.2 3.8 32.1 3.8C31 3.8 29.8 3.8 28.7 3.8C28.5 3.8 28.3 4 28.2 4.1C27.2 5.9 26.2 7.7 25.2 9.4C25.1 9.6 24.9 9.8 24.7 9.9C23.1 10.6 21.5 11.2 19.9 11.9C19.7 12 19.4 12 19.1 11.9C17.2 11.4 15.2 10.8 13.3 10.3C13.1 10.2 12.8 10.3 12.6 10.5C11.8 11.3 11 12 10.2 12.9C10 13.1 9.9 13.4 10 13.6C10.5 15.5 11.1 17.5 11.6 19.4C11.7 19.6 11.7 19.9 11.6 20.1C11 21.7 10.3 23.3 9.6 24.9C9.5 25.1 9.3 25.3 9.1 25.4C7.3 26.4 5.6 27.4 3.8 28.4C3.6 28.5 3.4 28.8 3.4 29C3.4 30.1 3.4 31.2 3.4 32.3C3.4 32.5 3.5 32.8 3.7 32.9C5.5 33.9 7.3 34.9 9 35.9C9.2 36 9.4 36.2 9.5 36.4C10.2 38 10.8 39.6 11.5 41.2C11.6 41.4 11.6 41.6 11.5 41.8C11.1 43.1 10.7 44.4 10.4 45.7C10.1 46 10 46.7 9.8 47.6Z" fill="black"/>
<path d="M30.2 16.1C38 16.1 44.3 22.4 44.3 30.2C44.3 38 37.9 44.3 30.1 44.3C22.4 44.3 16.1 37.9 16.1 30.1C16.1 22.4 22.4 16 30.2 16.1ZM19.4 30.2C19.4 36.1 24.3 41 30.2 40.9C36.1 40.9 41 36 40.9 30.1C40.9 24.2 36 19.3 30.1 19.4C24.2 19.4 19.4 24.3 19.4 30.2Z" fill="black"/>
</g>
<defs>
<clipPath id="clip0_2_98">
<rect width="60.3" height="60.3" fill="white"/>
</clipPath>
</defs>
</svg>
